Coordinates
version=1
nRows=13
nColumns=45
inDegrees=yes

Units are S.I. units (second, meters, Newtons, ...)
Angles are in degrees.

endheader
time	pelvis_tilt	pelvis_list	pelvis_rotation	pelvis_tx	pelvis_ty	pelvis_tz	hip_flexion_r	hip_adduction_r	hip_rotation_r	knee_angle_r	knee_adduction_r	knee_angle_r_beta	ankle_angle_r	subtalar_angle_r	mtp_angle_r	hip_flexion_l	hip_adduction_l	hip_rotation_l	knee_angle_l	knee_adduction_l	knee_angle_l_beta	ankle_angle_l	subtalar_angle_l	mtp_angle_l	lumbar_extension	lumbar_bending	lumbar_rotation	thoracic_extension	thoracic_bending	thoracic_rotation	arm_flex_r	arm_add_r	arm_rot_r	elbow_flex_r	pro_sup_r	wrist_flex_r	wrist_dev_r	arm_flex_l	arm_add_l	arm_rot_l	elbow_flex_l	pro_sup_l	wrist_flex_l	wrist_dev_l
     30.27814286	     -2.43722879	      1.68830957	     -1.80905805	      0.71985811	      0.95089303	      0.47117912	     31.24021592	     -5.27447050	     -3.90071140	     56.41318208	      5.06300000	      0.98459577	      5.93692553	     -8.21879361	      0.83659079	      1.78129702	      3.57529239	     -4.42147010	     17.68841074	      5.06300000	      0.30872101	     16.53521897	     -7.51802298	      0.24055927	     -4.51144069	     -0.35121310	     -3.57332582	      0.00000000	      0.00000000	      0.00000000	      1.09076721	    -12.58114099	      7.58447948	     23.38093724	     89.99911678	      0.00000000	      0.00000000	      3.94172010	    -16.74045950	     12.04513466	     40.58716229	     89.99945425	      0.00000000	      0.00000000
     30.28878571	     -2.56758315	      1.45012892	     -1.39453957	      0.71937428	      0.95082290	      0.47067110	     31.67611761	     -5.10762039	     -4.45460087	     52.79979028	      5.06300000	      0.92153018	      6.09853770	     -7.76303721	      0.72525305	      0.58651857	      3.37076838	     -3.96670581	     16.94594389	      5.06300000	      0.29576252	     16.49231271	     -7.34336533	     -0.30473190	     -4.40161065	     -0.01403240	     -3.91603160	      0.00000000	      0.00000000	      0.00000000	     -0.03071690	    -12.59713593	      7.42000646	     22.61631939	     89.99911678	      0.00000000	      0.00000000	      4.43749522	    -17.02271191	     12.01339439	     42.38978976	     89.99945425	      0.00000000	      0.00000000
     30.29942857	     -2.97834306	      1.77872861	     -1.01855907	      0.71757753	      0.94956207	      0.47081931	     32.68098181	     -5.41416982	     -4.58778726	     49.38638775	      5.06300000	      0.86195507	      6.30259149	     -7.30698562	      0.70554897	     -0.06894842	      3.66947087	     -3.77903257	     16.50042625	      5.06300000	      0.28798677	     16.56962217	     -6.83183026	     -0.64212949	     -4.15777677	     -0.43320057	     -4.29968433	      0.00000000	      0.00000000	      0.00000000	     -1.00528762	    -12.41878186	      7.36062967	     22.57259964	     89.99911678	      0.00000000	      0.00000000	      5.45109912	    -17.66634338	     11.75916475	     43.45855606	     89.99945425	      0.00000000	      0.00000000
     30.31007143	     -2.79686871	      1.29686679	     -0.68815339	      0.71653340	      0.94949880	      0.47066355	     32.46267960	     -4.95274990	     -5.18176796	     45.09136390	      5.06300000	      0.78699276	      6.14672556	     -6.91596883	      0.25629499	     -1.44862823	      3.14313259	     -3.45915768	     15.98980203	      5.06300000	      0.27907469	     16.54400644	     -6.67989223	     -1.68300143	     -4.56011220	      0.16255522	     -4.68942157	      0.00000000	      0.00000000	      0.00000000	     -1.60786615	    -12.43928913	      6.98053550	     21.83133108	     89.99911678	      0.00000000	      0.00000000	      5.89549717	    -18.23039093	     11.83508254	     45.73336205	     89.99945425	      0.00000000	      0.00000000
     30.32071429	     -2.93470464	      1.33044172	     -0.40630008	      0.71499814	      0.94844396	      0.47092911	     32.73913142	     -4.92923967	     -5.38245519	     40.94465887	      5.06300000	      0.71461911	      6.12755153	     -6.36595279	     -0.02669146	     -2.42355924	      3.10813060	     -3.34410686	     15.53868043	      5.06300000	      0.27120113	     16.58910208	     -6.29446365	     -2.37775607	     -4.64656995	      0.09998788	     -4.99762823	      0.00000000	      0.00000000	      0.00000000	     -2.37667193	    -12.35370431	      6.65331509	     21.52889023	     89.99911678	      0.00000000	      0.00000000	      6.58316314	    -18.79610097	     11.66201998	     47.35342955	     89.99945425	      0.00000000	      0.00000000
     30.33135714	     -3.46582136	      1.81876027	     -0.15925861	      0.71308738	      0.94623438	      0.47129572	     33.61461693	     -5.32888576	     -5.22801715	     37.09729452	      5.06300000	      0.64746993	      6.46230410	     -5.54970505	     -0.11048314	     -2.89071599	      3.55505085	     -3.20283993	     15.20994895	      5.06300000	      0.26546369	     16.71105912	     -5.84349995	     -2.73239861	     -4.29760291	     -0.49397104	     -5.25061831	      0.00000000	      0.00000000	      0.00000000	     -3.13828592	    -12.15788826	      6.57085142	     21.65193679	     89.99911678	      0.00000000	      0.00000000	      7.70225828	    -19.43477173	     11.35257885	     48.28842444	     89.99945425	      0.00000000	      0.00000000
     30.34200000	     -3.67373918	      1.38058782	     -0.01701238	      0.71233210	      0.94508386	      0.47151188	     33.40964490	     -4.72838717	     -5.36216663	     32.19313453	      5.06300000	      0.56187619	      6.26720728	     -4.97857751	     -0.59468265	     -3.76054456	      3.01312855	     -3.23345890	     14.92901262	      5.06300000	      0.26056042	     16.73344792	     -5.58533266	     -4.00481161	     -4.23117138	      0.04286291	     -5.29605929	      0.00000000	      0.00000000	      0.00000000	     -3.94200817	    -12.28361755	      6.14345144	     21.36016377	     89.99911678	      0.00000000	      0.00000000	      8.08741809	    -19.79052343	     11.33132265	     50.07793799	     89.99945425	      0.00000000	      0.00000000
     30.35264286	     -3.88429189	      1.46001271	      0.17339166	      0.71114473	      0.94332238	      0.47209976	     33.37859065	     -4.67109615	     -5.26972253	     27.70246316	      5.06300000	      0.48349919	      6.43754341	     -4.09589211	     -0.86151667	     -4.58839678	      2.98108727	     -3.26690124	     14.66421344	      5.06300000	      0.25593881	     16.74089353	     -5.16077404	     -5.00094786	     -4.18128665	     -0.08259303	     -5.43050896	      0.00000000	      0.00000000	      0.00000000	     -4.62617598	    -12.18928636	      5.75589671	     21.23890794	     89.99911678	      0.00000000	      0.00000000	      8.78247825	    -20.28368347	     11.11767740	     51.49776517	     89.99945425	      0.00000000	      0.00000000
     30.36328571	     -4.12274772	      1.55832388	      0.33092219	      0.71008565	      0.94126604	      0.47266102	     33.28920720	     -4.64454045	     -5.13386907	     23.29744864	      5.06300000	      0.40661719	      6.71722346	     -2.98942245	     -0.99056959	     -5.32568433	      2.96487180	     -3.33232928	     14.53967593	      5.06300000	      0.25376522	     16.74569648	     -4.77292351	     -6.09695882	     -4.12637625	     -0.21963008	     -5.53146594	      0.00000000	      0.00000000	      0.00000000	     -5.26077711	    -12.12836988	      5.34694966	     21.16429527	     89.99911678	      0.00000000	      0.00000000	      9.42449418	    -20.73747716	     10.89574594	     52.82997050	     89.99945425	      0.00000000	      0.00000000
     30.37392857	     -4.45151194	      1.88239957	      0.49411774	      0.70915895	      0.93877251	      0.47334809	     33.36316901	     -4.86971816	     -4.96803944	     19.34681156	      5.06300000	      0.33766556	      7.21866532	     -1.63747159	     -0.97575591	     -5.95665843	      3.17575942	     -3.37019531	     14.44886563	      5.06300000	      0.25218028	     16.72466179	     -4.38524155	     -6.99742076	     -3.93320241	     -0.65297904	     -5.55770309	      0.00000000	      0.00000000	      0.00000000	     -5.90905153	    -11.99852020	      5.10192961	     21.05843347	     89.99911678	      0.00000000	      0.00000000	     10.14837772	    -21.16417472	     10.67543327	     53.83727552	     89.99945425	      0.00000000	      0.00000000
     30.38457143	     -4.48529012	      1.90024036	      0.64646150	      0.70874598	      0.93655092	      0.47401192	     32.91482946	     -4.80725962	     -4.96199942	     15.50380769	      5.06300000	      0.27059249	      7.66997273	     -0.33528867	     -0.78275951	     -6.79412787	      3.02239860	     -3.56676653	     14.63751585	      5.06300000	      0.25547285	     16.67010299	     -3.94020116	     -8.72144307	     -4.04286367	     -0.68885657	     -5.71685148	      0.00000000	      0.00000000	      0.00000000	     -6.39988679	    -11.99860576	      4.59067736	     21.04829673	     89.99911678	      0.00000000	      0.00000000	     10.56347670	    -21.61835863	     10.48993817	     55.22700874	     89.99945425	      0.00000000	      0.00000000
     30.39521429	     -4.50544267	      2.06642662	      0.81812377	      0.70852042	      0.93410441	      0.47475257	     32.63809314	     -4.93173599	     -5.06996990	     12.52450425	      5.06300000	      0.21859384	      8.38310738	      1.11779078	     -0.55239528	     -7.64998950	      3.01190158	     -3.69231735	     14.82993066	      5.06300000	      0.25883112	     16.56354932	     -3.52337853	    -10.31730874	     -4.12959629	     -0.91917937	     -5.82959322	      0.00000000	      0.00000000	      0.00000000	     -6.89520930	    -11.90254267	      4.01541013	     21.08538421	     89.99911678	      0.00000000	      0.00000000	     11.00431052	    -22.04242620	     10.19134606	     56.49906358	     89.99945425	      0.00000000	      0.00000000
     30.40585714	     -4.66090221	      2.21664864	      0.91051939	      0.70855940	      0.93142170	      0.47555391	     32.65228479	     -5.01278639	     -5.25177649	     10.37909020	      5.06300000	      0.18114930	      9.14433219	      2.47201806	     -0.40534967	     -8.28760475	      2.98449701	     -3.95670040	     15.19207992	      5.06300000	      0.26515181	     16.42757313	     -3.12736370	    -11.79677168	     -4.01553139	     -1.11611329	     -5.80675912	      0.00000000	      0.00000000	      0.00000000	     -7.38595484	    -11.85078306	      3.62140719	     21.08830273	     89.99911678	      0.00000000	      0.00000000	     11.46488244	    -22.31372515	      9.91691836	     57.41606848	     89.99945425	      0.00000000	      0.00000000
